<svg width="84" height="131" viewBox="0 0 84 131" fill="none" xmlns="http://www.w3.org/2000/svg">
<path d="M28.9708 13.0878C27.5993 13.0878 26.496 14.401 26.496 16.0333C26.496 17.6656 27.5993 18.9788 28.9708 18.9788H34.9205L36.6116 22.6975L26.496 32.7244L21.8249 27.1648C20.5875 25.692 18.9067 24.8698 17.1538 24.8698H6.69794C4.87281 24.8698 3.39826 26.6248 3.39826 28.7971V32.7244H13.2973C22.4127 32.7244 29.7957 41.5117 29.7957 52.3609C29.7957 53.711 29.6823 55.0242 29.4657 56.2883H36.725C36.5085 55.0242 36.395 53.711 36.395 52.3609C36.395 45.9545 38.9729 40.2599 42.9635 36.6762L44.5514 40.1863C41.592 43.0704 39.6947 47.4518 39.6947 52.3609C39.6947 61.0378 45.6032 68.0702 52.8934 68.0702C60.1837 68.0702 66.0921 61.0378 66.0921 52.3609C66.0921 43.684 60.1837 36.6517 52.8934 36.6517C51.5014 36.6517 50.1609 36.9094 48.9029 37.3881L43.2212 24.8698H49.5937C51.4189 24.8698 52.8934 23.1147 52.8934 20.9425V17.0151C52.8934 14.8429 51.4189 13.0878 49.5937 13.0878H47.4902C46.7168 13.0878 45.9744 13.4069 45.3763 13.996L40.4887 18.8438L39.0451 15.6529C38.3233 14.0697 36.9312 13.0756 35.4154 13.0756L28.9708 13.0878ZM47.8099 47.3536L50.7177 53.76C51.3673 55.196 52.8728 55.7237 54.0689 54.9505C55.2651 54.1773 55.7188 52.3855 55.0691 50.9618L52.1613 44.5554C52.3985 44.5186 52.646 44.5063 52.8934 44.5063C56.5334 44.5063 59.4928 48.0286 59.4928 52.3609C59.4928 56.6933 56.5334 60.2156 52.8934 60.2156C49.2535 60.2156 46.2941 56.6933 46.2941 52.3609C46.2941 50.4587 46.8612 48.7159 47.8099 47.3536ZM19.412 55.3064C18.4324 58.1905 16.0608 60.2156 13.2973 60.2156C9.65734 60.2156 6.69794 56.6933 6.69794 52.3609C6.69794 48.0286 9.65734 44.5063 13.2973 44.5063C16.0711 44.5063 18.4427 46.5313 19.412 49.4155H26.2588C25.104 42.1499 19.742 36.6517 13.2973 36.6517C6.00707 36.6517 0.098587 43.684 0.098587 52.3609C0.098587 61.0378 6.00707 68.0702 13.2973 68.0702C19.742 68.0702 25.104 62.5719 26.2692 55.3064H19.4223H19.412ZM13.2973 56.2883C14.1724 56.2883 15.0117 55.8745 15.6305 55.138C16.2493 54.4015 16.597 53.4025 16.597 52.3609C16.597 51.3194 16.2493 50.3204 15.6305 49.5839C15.0117 48.8474 14.1724 48.4336 13.2973 48.4336C12.4222 48.4336 11.5829 48.8474 10.9641 49.5839C10.3453 50.3204 9.99762 51.3194 9.99762 52.3609C9.99762 53.4025 10.3453 54.4015 10.9641 55.138C11.5829 55.8745 12.4222 56.2883 13.2973 56.2883Z" fill="#0066FF"/>
<path fill-rule="evenodd" clip-rule="evenodd" d="M0 68.4287V130.052H3.41698V74.0948V73.8768V71.4796H47.9711C56.4455 71.08 62.6421 67.4258 66.7654 62.1363C71.1673 56.4893 73.2653 48.8952 73.0967 41.2281C72.9281 33.5618 70.4953 25.9443 65.9905 20.2721C61.6631 14.8234 55.41 11.1425 47.282 10.8963H9.43988V8.2812H48.4853V8.3633C56.8893 8.92824 63.454 12.9155 68.0178 18.6621C72.9274 24.844 75.5059 33.032 75.6849 41.1712C75.8639 49.3095 73.6457 57.5209 68.8072 63.7279C64.2109 69.6242 57.3032 73.6372 48.07 74.0667V74.0948H47.2703C46.9852 74.1015 46.6979 74.1049 46.4084 74.1049V74.0948H6.11693V130.052H8.60918V76.492H11.3091L46.6162 76.492C57.4226 76.492 65.2435 72.0983 70.3446 65.5545C75.4752 58.9727 77.914 50.1316 77.7179 41.2167C77.5219 32.3027 74.6934 23.438 69.446 16.8307C64.2226 10.2536 56.5871 5.88401 46.6162 5.88401L3.83229 5.88399V3.26888H48.4853V3.3172C58.4126 3.83472 66.1449 8.46918 71.4939 15.2044C77.1502 22.3265 80.1258 31.7675 80.3324 41.1592C80.5389 50.5501 77.9787 60.0148 72.4071 67.1623C67.0422 74.0445 58.9405 78.7009 48.07 79.0818V79.1071L46.6162 79.1071L11.3091 79.1071V130.052H15.0086V82.5524H42.121C51.7637 82.5524 59.6715 80.7108 65.8444 77.0277C72.0173 73.3023 76.5764 68.3068 79.5216 62.0413C82.5072 55.7758 84 48.8118 84 41.1492C84 33.4866 82.5072 26.5438 79.5216 20.3206C76.536 14.0974 71.9366 9.16544 65.7233 5.52466C59.5504 1.84155 51.6023 0 41.879 0H0V13.9472H41.8393V13.9721C48.3707 14.0233 53.6289 15.2081 57.6138 17.5265C61.6888 19.8549 64.634 23.0723 66.4496 27.1788C68.3055 31.2852 69.2334 35.9421 69.2334 41.1492C69.2334 46.3563 68.3055 51.0343 66.4496 55.1831C64.634 59.2896 61.7089 62.5493 57.6744 64.9624C53.6398 67.3755 48.2939 68.582 41.6369 68.582H15.0086V68.4287H0Z" fill="#0066FF"/>
</svg>
