<svg width="131" height="45" viewBox="0 0 131 45" fill="none" xmlns="http://www.w3.org/2000/svg">
<path d="M10.0244 4.5286C9.54988 4.5286 9.16811 4.98299 9.16811 5.54778C9.16811 6.11258 9.54988 6.56697 10.0244 6.56697H12.0831L12.6683 7.85369L9.16811 11.3232L7.55183 9.39945C7.12368 8.88986 6.5421 8.60534 5.93555 8.60534H2.31766C1.68614 8.60534 1.17592 9.2126 1.17592 9.96425V11.3232H4.60114C7.7552 11.3232 10.3098 14.3637 10.3098 18.1177C10.3098 18.5848 10.2706 19.0392 10.1957 19.4766H12.7075C12.6326 19.0392 12.5933 18.5848 12.5933 18.1177C12.5933 15.901 13.4853 13.9306 14.8661 12.6906L15.4156 13.9051C14.3916 14.903 13.7351 16.4191 13.7351 18.1177C13.7351 21.1201 15.7795 23.5534 18.302 23.5534C20.8246 23.5534 22.869 21.1201 22.869 18.1177C22.869 15.1154 20.8246 12.6821 18.302 12.6821C17.8204 12.6821 17.3565 12.7713 16.9212 12.9369L14.9553 8.60534H17.1603C17.7918 8.60534 18.302 7.99807 18.302 7.24642V5.88751C18.302 5.13586 17.7918 4.5286 17.1603 4.5286H16.4324C16.1648 4.5286 15.908 4.63901 15.701 4.84285L14.0098 6.52026L13.5103 5.41614C13.2605 4.86833 12.7789 4.52435 12.2544 4.52435L10.0244 4.5286ZM16.543 16.3851L17.5492 18.6018C17.774 19.0987 18.2949 19.2813 18.7088 19.0138C19.1227 18.7462 19.2797 18.1262 19.0549 17.6336L18.0487 15.4169C18.1308 15.4041 18.2164 15.3999 18.302 15.3999C19.5615 15.3999 20.5855 16.6187 20.5855 18.1177C20.5855 19.6168 19.5615 20.8355 18.302 20.8355C17.0426 20.8355 16.0186 19.6168 16.0186 18.1177C16.0186 17.4595 16.2148 16.8565 16.543 16.3851ZM6.71693 19.1369C6.37798 20.1349 5.55735 20.8355 4.60114 20.8355C3.34166 20.8355 2.31766 19.6168 2.31766 18.1177C2.31766 16.6187 3.34166 15.3999 4.60114 15.3999C5.56092 15.3999 6.38155 16.1006 6.71693 17.0985H9.08605C8.68644 14.5846 6.83111 12.6821 4.60114 12.6821C2.07861 12.6821 0.0341797 15.1154 0.0341797 18.1177C0.0341797 21.1201 2.07861 23.5534 4.60114 23.5534C6.83111 23.5534 8.68644 21.6509 9.08961 19.1369H6.7205H6.71693ZM4.60114 19.4766C4.90395 19.4766 5.19436 19.3335 5.40848 19.0786C5.62259 18.8238 5.74289 18.4781 5.74289 18.1177C5.74289 17.7573 5.62259 17.4117 5.40848 17.1568C5.19436 16.902 4.90395 16.7588 4.60114 16.7588C4.29834 16.7588 4.00793 16.902 3.79381 17.1568C3.57969 17.4117 3.4594 17.7573 3.4594 18.1177C3.4594 18.4781 3.57969 18.8238 3.79381 19.0786C4.00793 19.3335 4.29834 19.4766 4.60114 19.4766Z" fill="#0066FF"/>
<path fill-rule="evenodd" clip-rule="evenodd" d="M0 23.6774V45H1.18229V25.6379V25.5626V24.7331H16.5987C19.531 24.5948 21.6752 23.3304 23.1019 21.5001C24.625 19.5462 25.3509 16.9185 25.2926 14.2656C25.2343 11.6129 24.3925 8.97714 22.8337 7.01447C21.3365 5.12921 19.173 3.85562 16.3608 3.77029H3.26636V2.86542H16.7767V2.89382C19.6846 3.0893 21.9561 4.46897 23.5352 6.45736C25.234 8.59639 26.1262 11.4296 26.1882 14.2459C26.2501 17.0619 25.4826 19.9031 23.8084 22.0509C22.218 24.0911 19.8278 25.4796 16.6329 25.6282V25.6379H16.3563C16.2576 25.6403 16.1582 25.6415 16.0581 25.6415V25.6379H2.11652V45H2.97892V26.4674H3.91314V26.4674H16.1299C19.8691 26.4674 22.5753 24.9472 24.3403 22.6829C26.1156 20.4055 26.9594 17.3463 26.8916 14.2616C26.8238 11.1772 25.8451 8.10991 24.0294 5.8237C22.222 3.5479 19.58 2.03595 16.1299 2.03595L1.32601 2.03594V1.13107H16.7767V1.1478C20.2117 1.32687 22.8872 2.93047 24.738 5.26095C26.6952 7.7253 27.7248 10.992 27.7963 14.2417C27.8677 17.4911 26.9819 20.7661 25.054 23.2392C23.1977 25.6206 20.3943 27.2317 16.633 27.3636V27.3723H16.1374C16.1349 27.3723 16.1324 27.3723 16.1299 27.3723L3.91314 27.3723V45H5.19323V28.5645H14.5746C17.9111 28.5645 20.6473 27.9272 22.7832 26.6528C24.9191 25.3638 26.4966 23.6353 27.5157 21.4673C28.5488 19.2993 29.0653 16.8896 29.0653 14.2383C29.0653 11.5869 28.5488 9.18457 27.5157 7.03125C26.4827 4.87793 24.8912 3.17139 22.7413 1.91162C20.6054 0.637207 17.8552 0 14.4908 0H0V4.82597H14.477V4.83458C16.737 4.8523 18.5564 5.26225 19.9353 6.06445C21.3453 6.87012 22.3644 7.9834 22.9926 9.4043C23.6348 10.8252 23.9559 12.4365 23.9559 14.2383C23.9559 16.04 23.6348 17.6587 22.9926 19.0942C22.3644 20.5151 21.3523 21.6431 19.9562 22.478C18.5602 23.313 16.7105 23.7305 14.407 23.7305H5.19323V23.6774H0Z" fill="#0066FF"/>
<path d="M39.4893 25.484V22.076H42.6333C43.2413 22.076 43.7613 21.956 44.1933 21.716C44.6413 21.476 44.9853 21.14 45.2253 20.708C45.4653 20.26 45.5853 19.748 45.5853 19.172C45.5853 18.564 45.4653 18.044 45.2253 17.612C44.9853 17.164 44.6413 16.828 44.1933 16.604C43.7613 16.364 43.2413 16.244 42.6333 16.244H39.4893V12.836H42.4413C43.9293 12.836 45.2013 13.084 46.2573 13.58C47.3293 14.076 48.1453 14.78 48.7053 15.692C49.2813 16.604 49.5693 17.7 49.5693 18.98V19.364C49.5693 20.612 49.2813 21.7 48.7053 22.628C48.1453 23.54 47.3293 24.244 46.2573 24.74C45.2013 25.236 43.9293 25.484 42.4413 25.484H39.4893ZM36.0333 30.5V12.836H39.9693V30.5H36.0333ZM59.5816 30.5V26.612H58.9336V22.388C58.9336 21.716 58.7736 21.212 58.4536 20.876C58.1336 20.54 57.6216 20.372 56.9176 20.372C56.5656 20.372 56.1016 20.38 55.5256 20.396C54.9496 20.412 54.3576 20.436 53.7496 20.468C53.1416 20.5 52.5896 20.532 52.0936 20.564V17.324C52.4616 17.292 52.8936 17.26 53.3896 17.228C53.8856 17.196 54.3976 17.172 54.9256 17.156C55.4536 17.14 55.9496 17.132 56.4136 17.132C57.7576 17.132 58.8856 17.324 59.7976 17.708C60.7256 18.092 61.4296 18.676 61.9096 19.46C62.3896 20.228 62.6296 21.22 62.6296 22.436V30.5H59.5816ZM55.3816 30.836C54.4376 30.836 53.6056 30.668 52.8856 30.332C52.1816 29.996 51.6296 29.516 51.2296 28.892C50.8296 28.252 50.6296 27.492 50.6296 26.612C50.6296 25.652 50.8776 24.868 51.3736 24.26C51.8696 23.636 52.5656 23.18 53.4616 22.892C54.3576 22.588 55.3896 22.436 56.5576 22.436H59.3656V24.572H56.5336C55.8616 24.572 55.3416 24.74 54.9736 25.076C54.6216 25.396 54.4456 25.836 54.4456 26.396C54.4456 26.924 54.6216 27.356 54.9736 27.692C55.3416 28.012 55.8616 28.172 56.5336 28.172C56.9656 28.172 57.3496 28.1 57.6856 27.956C58.0376 27.796 58.3256 27.532 58.5496 27.164C58.7736 26.796 58.9016 26.284 58.9336 25.628L59.8456 26.588C59.7656 27.5 59.5416 28.268 59.1736 28.892C58.8216 29.516 58.3256 29.996 57.6856 30.332C57.0616 30.668 56.2936 30.836 55.3816 30.836ZM65.8876 30.5V17.348H68.9356V22.988H68.8636C68.8636 21.132 69.2556 19.7 70.0396 18.692C70.8396 17.684 71.9916 17.18 73.4956 17.18H73.9996V20.492H73.0396C71.9836 20.492 71.1676 20.78 70.5916 21.356C70.0156 21.916 69.7276 22.732 69.7276 23.804V30.5H65.8876ZM85.2532 30.5L81.1012 24.356H79.2532L84.6052 17.348H88.6372L83.5972 23.876L83.6452 22.004L89.5732 30.5H85.2532ZM75.9892 30.5V12.98H79.8292V30.5H75.9892ZM96.8491 30.956C95.7291 30.956 94.7371 30.764 93.8731 30.38C93.0251 29.996 92.3131 29.484 91.7371 28.844C91.1771 28.188 90.7451 27.46 90.4411 26.66C90.1531 25.844 90.0091 25.012 90.0091 24.164V23.684C90.0091 22.804 90.1531 21.964 90.4411 21.164C90.7451 20.348 91.1771 19.62 91.7371 18.98C92.2971 18.34 92.9931 17.836 93.8251 17.468C94.6731 17.084 95.6331 16.892 96.7051 16.892C98.1131 16.892 99.2971 17.212 100.257 17.852C101.233 18.476 101.977 19.3 102.489 20.324C103.001 21.332 103.257 22.436 103.257 23.636V24.932H91.6171V22.748H100.929L99.6811 23.756C99.6811 22.972 99.5691 22.3 99.3451 21.74C99.1211 21.18 98.7851 20.756 98.3371 20.468C97.9051 20.164 97.3611 20.012 96.7051 20.012C96.0331 20.012 95.4651 20.164 95.0011 20.468C94.5371 20.772 94.1851 21.22 93.9451 21.812C93.7051 22.388 93.5851 23.1 93.5851 23.948C93.5851 24.732 93.6971 25.42 93.9211 26.012C94.1451 26.588 94.4971 27.036 94.9771 27.356C95.4571 27.676 96.0811 27.836 96.8491 27.836C97.5531 27.836 98.1291 27.7 98.5771 27.428C99.0251 27.156 99.3291 26.82 99.4891 26.42H103.017C102.825 27.3 102.449 28.084 101.889 28.772C101.329 29.46 100.625 29.996 99.7771 30.38C98.9291 30.764 97.9531 30.956 96.8491 30.956ZM111.826 30.956C110.706 30.956 109.714 30.764 108.85 30.38C108.002 29.996 107.29 29.484 106.714 28.844C106.154 28.188 105.722 27.46 105.418 26.66C105.13 25.844 104.986 25.012 104.986 24.164V23.684C104.986 22.804 105.13 21.964 105.418 21.164C105.722 20.348 106.154 19.62 106.714 18.98C107.274 18.34 107.97 17.836 108.802 17.468C109.65 17.084 110.61 16.892 111.682 16.892C113.09 16.892 114.274 17.212 115.234 17.852C116.21 18.476 116.954 19.3 117.466 20.324C117.978 21.332 118.234 22.436 118.234 23.636V24.932H106.594V22.748H115.906L114.658 23.756C114.658 22.972 114.546 22.3 114.322 21.74C114.098 21.18 113.762 20.756 113.314 20.468C112.882 20.164 112.338 20.012 111.682 20.012C111.01 20.012 110.442 20.164 109.978 20.468C109.514 20.772 109.162 21.22 108.922 21.812C108.682 22.388 108.562 23.1 108.562 23.948C108.562 24.732 108.674 25.42 108.898 26.012C109.122 26.588 109.474 27.036 109.954 27.356C110.434 27.676 111.058 27.836 111.826 27.836C112.53 27.836 113.106 27.7 113.554 27.428C114.002 27.156 114.306 26.82 114.466 26.42H117.994C117.802 27.3 117.426 28.084 116.866 28.772C116.306 29.46 115.602 29.996 114.754 30.38C113.906 30.764 112.93 30.956 111.826 30.956ZM120.778 30.5V17.348H123.826V22.988H123.754C123.754 21.132 124.146 19.7 124.93 18.692C125.73 17.684 126.882 17.18 128.386 17.18H128.89V20.492H127.93C126.874 20.492 126.058 20.78 125.482 21.356C124.906 21.916 124.618 22.732 124.618 23.804V30.5H120.778Z" fill="black"/>
</svg>
