<svg width="52" height="52" viewBox="0 0 52 52" fill="none" xmlns="http://www.w3.org/2000/svg">
<circle cx="26" cy="26" r="26" fill="#0066FF"/>
<path d="M24.3561 14.2266C23.9132 14.2266 23.5569 14.6507 23.5569 15.1779C23.5569 15.705 23.9132 16.1291 24.3561 16.1291H26.2775L26.8237 17.33L23.5569 20.5682L22.0483 18.7727C21.6487 18.2971 21.1059 18.0316 20.5398 18.0316H17.1631C16.5737 18.0316 16.0975 18.5984 16.0975 19.2999V20.5682H19.2944C22.2382 20.5682 24.6225 23.4061 24.6225 26.9098C24.6225 27.3458 24.5859 27.7699 24.5159 28.1781H26.8603C26.7904 27.7699 26.7537 27.3458 26.7537 26.9098C26.7537 24.8409 27.5863 23.0018 28.875 21.8445L29.3878 22.978C28.4321 23.9094 27.8194 25.3244 27.8194 26.9098C27.8194 29.712 29.7275 31.9831 32.0819 31.9831C34.4362 31.9831 36.3444 29.712 36.3444 26.9098C36.3444 24.1076 34.4362 21.8365 32.0819 21.8365C31.6323 21.8365 31.1994 21.9198 30.7931 22.0743L28.9582 18.0316H31.0162C31.6057 18.0316 32.0819 17.4648 32.0819 16.7633V15.4949C32.0819 14.7934 31.6057 14.2266 31.0162 14.2266H30.3369C30.0871 14.2266 29.8474 14.3297 29.6542 14.5199L28.0758 16.0855L27.6096 15.055C27.3765 14.5437 26.9269 14.2227 26.4374 14.2227L24.3561 14.2266ZM30.4401 25.2927L31.3792 27.3616C31.589 27.8254 32.0752 27.9958 32.4615 27.7461C32.8478 27.4964 32.9943 26.9177 32.7845 26.458L31.8454 24.389C31.922 24.3771 32.0019 24.3732 32.0819 24.3732C33.2574 24.3732 34.2131 25.5107 34.2131 26.9098C34.2131 28.3089 33.2574 29.4464 32.0819 29.4464C30.9063 29.4464 29.9506 28.3089 29.9506 26.9098C29.9506 26.2955 30.1338 25.7326 30.4401 25.2927ZM21.2691 27.861C20.9527 28.7925 20.1868 29.4464 19.2944 29.4464C18.1188 29.4464 17.1631 28.3089 17.1631 26.9098C17.1631 25.5107 18.1188 24.3732 19.2944 24.3732C20.1902 24.3732 20.9561 25.0271 21.2691 25.9586H23.4803C23.1073 23.6122 21.3757 21.8365 19.2944 21.8365C16.94 21.8365 15.0319 24.1076 15.0319 26.9098C15.0319 29.712 16.94 31.9831 19.2944 31.9831C21.3757 31.9831 23.1073 30.2074 23.4836 27.861H21.2724H21.2691ZM19.2944 28.1781C19.577 28.1781 19.848 28.0445 20.0479 27.8066C20.2477 27.5688 20.36 27.2462 20.36 26.9098C20.36 26.5734 20.2477 26.2508 20.0479 26.013C19.848 25.7751 19.577 25.6415 19.2944 25.6415C19.0117 25.6415 18.7407 25.7751 18.5408 26.013C18.341 26.2508 18.2287 26.5734 18.2287 26.9098C18.2287 27.2462 18.341 27.5688 18.5408 27.8066C18.7407 28.0445 19.0117 28.1781 19.2944 28.1781Z" fill="white"/>
<path fill-rule="evenodd" clip-rule="evenodd" d="M15 32.0989V52H16.1035V33.9288V33.8584V33.0842H30.4917C33.2288 32.9553 35.2301 31.7751 36.5618 30.0668C37.9834 28.2431 38.6609 25.7906 38.6065 23.3145C38.552 20.8387 37.7664 18.3786 36.3116 16.5468C34.9142 14.7873 32.895 13.5987 30.2705 13.5189H18.0486V12.6744H30.6583V12.7009C33.3723 12.8833 35.4924 14.171 36.9663 16.0269C38.5518 18.0233 39.3845 20.6676 39.4424 23.2961C39.5002 25.9244 38.7838 28.5762 37.2212 30.5808C35.7368 32.485 33.506 33.781 30.5241 33.9197V33.9288H30.265C30.1732 33.9309 30.0807 33.932 29.9876 33.932V33.9288H16.9754V52H17.7803V34.7029H18.6522V34.7029H30.0546V34.7029C33.5445 34.7029 36.0703 33.284 37.7176 31.1707C39.3746 29.0451 40.1621 26.1898 40.0988 23.3108C40.0355 20.432 39.1221 17.5692 37.4274 15.4354C35.7456 13.3177 33.2896 11.9087 30.0838 11.9002H16.2376V11.0557L30.0546 11.0557V11.0556C30.0647 11.0556 30.0748 11.0556 30.0849 11.0557H30.6582V11.0712C33.8642 11.2384 36.3614 12.735 38.0888 14.9102C39.9155 17.2102 40.8765 20.2592 40.9432 23.2922C41.0099 26.325 40.1831 29.3816 38.3837 31.6899C36.6512 33.9125 34.0347 35.4162 30.5241 35.5393V35.5475H18.6522V52H19.847V36.6602H28.6029C31.717 36.6602 34.2708 36.0654 36.2643 34.876C38.2579 33.6728 39.7302 32.0596 40.6814 30.0361C41.6456 28.0127 42.1277 25.7637 42.1277 23.2891C42.1277 20.8145 41.6456 18.5723 40.6814 16.5625C39.7172 14.5527 38.2318 12.96 36.2252 11.7842C34.2317 10.5947 31.6649 10 28.5247 10H15V14.5042H28.512V14.5123C30.6213 14.5288 32.3194 14.9114 33.6063 15.6602C34.9223 16.4121 35.8734 17.4512 36.4598 18.7773C37.0591 20.1035 37.3588 21.6074 37.3588 23.2891C37.3588 24.9707 37.0591 26.4814 36.4598 27.8213C35.8734 29.1475 34.9288 30.2002 33.6258 30.9795C32.3229 31.7588 30.5964 32.1484 28.4466 32.1484H19.847V32.0989H15Z" fill="white"/>
</svg>
